<svg id="Capa_1" data-name="Capa 1" xmlns="http://www.w3.org/2000/svg" viewBox="0 0 652 455"><defs><style>.cls-1{fill:#fff;}</style></defs><title>logo</title><path d="M25,307.93V290.69l7-.64q6.18-.63,6.17-6v-99l-12.13-.64V166.38H84.38q31.29,0,48.85,16.6t17.56,49.17q0,20.23-5.32,35.23T131,290.9q-18.31,17-45.56,17ZM64.15,187V287.5H85.87q18.3,0,28.52-13.2T124.61,236q0-49-41.51-49Z"/><path d="M261.91,205.12V284.3c0,2.28.39,3.84,1.17,4.69s2.16,1.35,4.15,1.49l6.81.42v17H240.2V295.59l-.64-.22q-10.65,15.33-29.17,15.33-21.7,0-32.14-13.84T167.82,259q0-29,14.05-45.13T224,197.67Q242.11,197.67,261.91,205.12Zm-24.7,69V219q-6-2.76-16.39-2.76-14.26,0-20.65,11.49t-6.38,30.44q0,34.49,22.14,34.49,9.36,0,15.32-5.64T237.21,274.09Z"/><path d="M285.74,217.89v-17h36V214.7a38.82,38.82,0,0,1,14.69-12.46,43.64,43.64,0,0,1,19.79-4.57q16.19,0,25,9.26t8.83,27.78v55.56l12.13.63v17H351.52V291.75l7-.63a8.53,8.53,0,0,0,4.68-1.81c1-.93,1.49-2.66,1.49-5.22V240.24q0-11.7-3.62-17.35t-13.73-5.64q-10.11,0-16.07,6.39a21.36,21.36,0,0,0-6,15.11v51.52l12.13.63v17H286.81V291.75l7-.63a8.53,8.53,0,0,0,4.69-1.81c1-.93,1.49-2.66,1.49-5.22v-59c0-4.26-1.78-6.46-5.32-6.6Z"/><path d="M453.27,200.86v89.41l12.13.63v17H414.74V291.75l7-.63q6.17-.64,6.17-6.82V225.13c0-2.41-.39-4-1.17-4.9S424.6,219,422.62,219l-7.45-.42V200.86Zm-26.82-18.41A15,15,0,0,1,422,171.27a15.47,15.47,0,0,1,16.18-16A16,16,0,0,1,450,159.88a15.49,15.49,0,0,1,4.58,11.39A14.78,14.78,0,0,1,450,182.45a16.41,16.41,0,0,1-11.81,4.36Q430.92,186.81,426.45,182.45Z"/><path d="M531.18,197.67q16,0,25.33,7.77t9.37,21.82a33,33,0,0,1-14,27.67,52.71,52.71,0,0,1-14.48,6.6,112.23,112.23,0,0,1-32.14,4.25q.63,11.3,7,18.21t19.59,6.91q13.18,0,26.39-9.36l8.09,17.24q-4.26,3.83-14.37,7.87a61.72,61.72,0,0,1-23.09,4.05q-26,0-38.11-14.37T478.6,256.85q0-25.13,13.84-42.15T531.18,197.67Zm-9.69,48.64a34.39,34.39,0,0,0,14.37-6.18q6.6-4.78,6.6-11.38,0-13-12.77-13-11.93,0-18.31,9.47t-7,22.67A112.75,112.75,0,0,0,521.49,246.31Z"/><path d="M618.88,156.16V290.27l12.13.63v17H580.35V291.75l7-.63q6.17-.64,6.17-6.82V179.36c0-3.12-1.78-4.82-5.32-5.11l-7.45-.42V156.16Z"/><path class="cls-1" d="M57.52,168.62c-3.51-.4-7,.13-10.53.19a35.73,35.73,0,0,0,3.93,22.35A42.5,42.5,0,0,0,63,204.7V190.75Q55.37,181.44,57.52,168.62Z"/><path class="cls-1" d="M152.29,232.71q-14-6.06-22.59-9.68t-26.35-10.89q-14.25-5.65-21.51-8.61-11.52-4.78-17.69-11.48c-.39-.43-.77-.86-1.13-1.3V204.7c.38.28.74.57,1.13.84a70.59,70.59,0,0,0,13.66,7.4q7.51,3.23,21.51,8.88,45,18.23,68.68,30.09c-.08-2.35,1.3-7.87,1.34-11.26Q162.55,237.15,152.29,232.71Z"/><path class="cls-1" d="M275.31,42.05a19.75,19.75,0,0,0-5-9.54,28.42,28.42,0,0,0-6.86-5.24,27.58,27.58,0,0,0-7.39-2.56q-17.74-4-50.15,7.8a350.21,350.21,0,0,0-123,78.11Q56,137.11,49,159.7a54.88,54.88,0,0,0-1.68,6.68c-.15.82-.25,1.62-.36,2.43,3.51-.06,7-.59,10.53-.19.13-.74.27-1.49.44-2.24q.42-1.83,1-3.72,5.91-19.36,29.58-43.3t58.35-45.71a331.1,331.1,0,0,1,42.36-23.53q20.83-9.54,37.78-13.58t26.89-1.61a15.92,15.92,0,0,1,9.54,5.65q3.36,4.31,1.75,14.25a5.11,5.11,0,0,0,1.08,3.9,5,5,0,0,0,3.49,2,4.55,4.55,0,0,0,2.69-.27,4.85,4.85,0,0,0,2.15-1.61,5.84,5.84,0,0,0,1.08-2.42A39.75,39.75,0,0,0,275.31,42.05Z"/><path class="cls-1" d="M295.88,222a5.5,5.5,0,0,0-3.36-2.15,4.85,4.85,0,0,0-3.9.94q-40.6,28.77-74.48,55.12a60,60,0,0,0-9.41-11.69,83.37,83.37,0,0,0-10.94-8.79c-.27-.19.35,10.75.71,13.31a50.89,50.89,0,0,1,11.3,13.63Q134.28,338.24,99.32,377T70.55,432.63Q74,442.32,87,442.31a18.16,18.16,0,0,0,3-.27q11-.8,25.68-7.25a162.41,162.41,0,0,0,30.92-18.56,234.94,234.94,0,0,0,30.92-27.7,178.88,178.88,0,0,0,26.09-36.3,146.53,146.53,0,0,0,15.73-42.48q2.69-13.19-.81-24.21,34.42-26.61,76.1-56.46a5.4,5.4,0,0,0,2.29-3.37A4.52,4.52,0,0,0,295.88,222ZM209.3,307.59A142.15,142.15,0,0,1,194,348.06a164.6,164.6,0,0,1-24.87,34.16,235.87,235.87,0,0,1-29,25.67,152.72,152.72,0,0,1-28.51,17.22Q98.25,431,89.1,431.83q-7.8.53-8.87-2.69-2.16-5.92,8.33-21.65t30.12-35.9q33.62-34.14,90.89-79A39.1,39.1,0,0,1,209.3,307.59Z"/><path class="cls-1" d="M357.33,221.55a5,5,0,0,1,3.9.53,4.53,4.53,0,0,1,2.28,3.23,5.76,5.76,0,0,1-.67,4A240.35,240.35,0,0,1,344.69,254a148.88,148.88,0,0,1-23.93,23q-13.32,10.21-22.46,10.22a13.71,13.71,0,0,1-5.64-1.08q-18-7.79-3.77-63.19a5.16,5.16,0,0,1,6.32-3.76,4.86,4.86,0,0,1,3.09,2.42,4.7,4.7,0,0,1,.54,3.76q-3.22,12.91-4.7,22.72A92.18,92.18,0,0,0,292.79,263a35.35,35.35,0,0,0,1.08,8.47c.62,2.24,1.16,3.59,1.61,4a4.68,4.68,0,0,0,1.21.94q7,3,25.41-14A182.77,182.77,0,0,0,354,223.7,6.37,6.37,0,0,1,357.33,221.55Zm-59.56-21c-5.21-.35-6.82-2.51-4.84-6.45a13.46,13.46,0,0,1,7-6.46q6.72-2.15,8.06,3.5,1.35,5.39-4,8.07A13.6,13.6,0,0,1,297.77,200.57Z"/><path class="cls-1" d="M427.91,31.43q5.65,8.34-5.51,39.4t-36.17,70.85l-.53.54Q368.75,210,353.29,283.53T333.53,388.27h.54a5.42,5.42,0,0,1,3.09,2.68,4.85,4.85,0,0,1,.13,4c-1.07,3-1.92,5.33-2.55,6.85a16,16,0,0,1-2.83,4.44,5.37,5.37,0,0,1-4,2.15,7.86,7.86,0,0,1-1.88-.27c-2.51-.89-3.85-3.36-4-7.39s1.07-13.94,3.76-29.71q4.84-29.06,14.52-75.83,22.32-106.49,44.37-189.85,1.88-7,4-14.65t6.19-19.23q4-11.56,7.93-20.3a91.57,91.57,0,0,1,8.74-15.6q4.85-6.85,9.14-7.39A6.72,6.72,0,0,1,427.91,31.43Zm-32.8,74.76q21.51-40.6,24.2-63.73Q407.48,60.21,395.11,106.19Z"/><path class="cls-1" d="M524.85,224.77a5.52,5.52,0,0,0-3.77-1.21,5.67,5.67,0,0,0-3.63,1.75c-3.51,4.22-7.22,8.45-11.39,11.13-.95,4.12-2.71,8.31-2.76,12.43A68.65,68.65,0,0,0,525.52,232a5.12,5.12,0,0,0,1.21-3.76A4.63,4.63,0,0,0,524.85,224.77Z"/><path class="cls-1" d="M480.09,241.25l-.28-.07q-15.87-4-20.17-26.62-.81-4.31-5.11-4.31a6.68,6.68,0,0,0-3.36,1.48,4.73,4.73,0,0,0-1.75,3.09q-2.69,19.11-12.64,40.47t-21.24,35.9q-11.3,14.52-18.82,16.94c-1.26.54-2.15.54-2.69,0a4.15,4.15,0,0,1-1.35-2.28,44.3,44.3,0,0,1-.8-8.47,89.48,89.48,0,0,1,1.21-16.54q1.47-9.81,6.32-28.5T412,210a4.83,4.83,0,0,0-.13-4,4.93,4.93,0,0,0-3-2.55,5.29,5.29,0,0,0-4,.26,4.43,4.43,0,0,0-2.56,2.83q-31.19,93.31-15.59,109.17a11,11,0,0,0,8.07,3.23,17.67,17.67,0,0,0,5.1-.81q7.53-2.41,16.94-12.5a149.55,149.55,0,0,0,18.56-25.41,189.8,189.8,0,0,0,20.44-46q7.51,13.44,21.24,16.94c.54.14,1.09.27,1.64.38C478.46,251.63,479.84,243.35,480.09,241.25Z"/><path class="cls-1" d="M623.8,223.29a5.09,5.09,0,0,1,6.46,3.23,5.35,5.35,0,0,1-.14,3.9q-28.77,59.43-51.36,59.43a18.06,18.06,0,0,1-3-.27q-18-3.49-22.32-48.4-13.17,17.74-23.39,29-9.15,9.67-15.6,6.72-6.45-2.42-6.18-14,0-9.69,4.3-23.13a106,106,0,0,1,12.64-26.08q8.32-12.65,18-15.87,14.25-5.1,26.35,9.41a5.22,5.22,0,0,1,1.21,3.77,4.74,4.74,0,0,1-1.75,3.5,5.18,5.18,0,0,1-3.76,1.21,4.77,4.77,0,0,1-3.5-1.75q-9.42-11.29-19.09-4.31-11,7.81-18.42,28.1t-5.78,28.91c1.07-.89,2.32-2.06,3.76-3.49q10.76-11.56,26.35-33.08l4.84-6.72a5,5,0,0,1,5.65-1.75,4.79,4.79,0,0,1,3.77,4.71,202.13,202.13,0,0,0,2.15,23.39,119.62,119.62,0,0,0,3.22,15.46A38,38,0,0,0,572,274a18.5,18.5,0,0,0,3.36,4.44,4.07,4.07,0,0,0,2.55.94q3.76.81,9.55-3.63t14.79-17.21a228,228,0,0,0,18.42-32.4A5.27,5.27,0,0,1,623.8,223.29Z"/></svg>